<svg width="37" height="44" viewBox="0 0 37 44" fill="none" xmlns="http://www.w3.org/2000/svg">
<path d="M7.40012 33C7.40012 34.0083 8.23262 34.8333 9.25012 34.8333H11.1001V41.25C11.1001 42.7717 12.3396 44 13.8751 44C15.4106 44 16.6501 42.7717 16.6501 41.25V34.8333H20.3501V41.25C20.3501 42.7717 21.5896 44 23.1251 44C24.6606 44 25.9001 42.7717 25.9001 41.25V34.8333H27.7501C28.7676 34.8333 29.6001 34.0083 29.6001 33V14.6667H7.40012V33ZM2.77512 14.6667C1.23962 14.6667 0.00012207 15.895 0.00012207 17.4167V30.25C0.00012207 31.7717 1.23962 33 2.77512 33C4.31062 33 5.55012 31.7717 5.55012 30.25V17.4167C5.55012 15.895 4.31062 14.6667 2.77512 14.6667ZM34.2251 14.6667C32.6896 14.6667 31.4501 15.895 31.4501 17.4167V30.25C31.4501 31.7717 32.6896 33 34.2251 33C35.7606 33 37.0001 31.7717 37.0001 30.25V17.4167C37.0001 15.895 35.7606 14.6667 34.2251 14.6667ZM25.0306 3.96L27.4356 1.57667C27.8056 1.21 27.8056 0.641667 27.4356 0.275C27.0656 -0.0916667 26.4921 -0.0916667 26.1221 0.275L23.3841 2.98833C21.9226 2.255 20.2576 1.83333 18.5001 1.83333C16.7241 1.83333 15.0591 2.255 13.5791 2.98833L10.8226 0.275C10.4526 -0.0916667 9.87912 -0.0916667 9.50912 0.275C9.13912 0.641667 9.13912 1.21 9.50912 1.57667L11.9326 3.97833C9.19462 5.97667 7.40012 9.185 7.40012 12.8333H29.6001C29.6001 9.185 27.8056 5.95833 25.0306 3.96ZM14.8001 9.16667H12.9501V7.33333H14.8001V9.16667ZM24.0501 9.16667H22.2001V7.33333H24.0501V9.16667Z" fill="white"/>
</svg>
