<svg width="36" height="36" viewBox="0 0 36 36" fill="none" xmlns="http://www.w3.org/2000/svg">
<path d="M13.7522 10.152C14.1662 9.252 14.4002 8.262 14.4002 7.2C14.4002 3.222 11.1782 0 7.20024 0C3.22224 0 0.000244141 3.222 0.000244141 7.2C0.000244141 11.178 3.22224 14.4 7.20024 14.4C8.26224 14.4 9.25224 14.166 10.1522 13.752L14.4002 18L10.1522 22.248C9.25224 21.834 8.26224 21.6 7.20024 21.6C3.22224 21.6 0.000244141 24.822 0.000244141 28.8C0.000244141 32.778 3.22224 36 7.20024 36C11.1782 36 14.4002 32.778 14.4002 28.8C14.4002 27.738 14.1662 26.748 13.7522 25.848L18.0002 21.6L30.6002 34.2H36.0002V32.4L13.7522 10.152ZM7.20024 10.8C5.22024 10.8 3.60024 9.198 3.60024 7.2C3.60024 5.202 5.22024 3.6 7.20024 3.6C9.18024 3.6 10.8002 5.202 10.8002 7.2C10.8002 9.198 9.18024 10.8 7.20024 10.8ZM7.20024 32.4C5.22024 32.4 3.60024 30.798 3.60024 28.8C3.60024 26.802 5.22024 25.2 7.20024 25.2C9.18024 25.2 10.8002 26.802 10.8002 28.8C10.8002 30.798 9.18024 32.4 7.20024 32.4ZM18.0002 18.9C17.4962 18.9 17.1002 18.504 17.1002 18C17.1002 17.496 17.4962 17.1 18.0002 17.1C18.5042 17.1 18.9002 17.496 18.9002 18C18.9002 18.504 18.5042 18.9 18.0002 18.9ZM30.6002 1.8L19.8002 12.6L23.4002 16.2L36.0002 3.6V1.8H30.6002Z" fill="#A9ACAC"/>
</svg>
